<svg id="Icon_Adobe_XD" data-name="Icon/Adobe XD" xmlns="http://www.w3.org/2000/svg" xmlns:xlink="http://www.w3.org/1999/xlink" width="30" height="30" viewBox="0 0 30 30">
  <defs>
    <clipPath id="clip-path">
      <rect id="Rectangle_481" data-name="Rectangle 481" width="30" height="30"/>
    </clipPath>
  </defs>
  <g id="xd_appicon_32" clip-path="url(#clip-path)">
    <g id="Layer_2" data-name="Layer 2" transform="translate(-0.034)">
      <g id="Surfaces">
        <g id="UI_UX_Surface" data-name="UI UX Surface">
          <g id="Outline_no_shadow" data-name="Outline no shadow">
            <path id="Path_3" data-name="Path 3" d="M5.317,0h19.39a5.317,5.317,0,0,1,5.317,5.317V23.956a5.317,5.317,0,0,1-5.317,5.317H5.317A5.317,5.317,0,0,1,0,23.956V5.317A5.317,5.317,0,0,1,5.317,0Z" fill="#470137"/>
          </g>
        </g>
      </g>
      <g id="Outlined_Mnemonics_Logos" data-name="Outlined Mnemonics Logos" transform="translate(4.369 6.409)">
        <g id="Xd">
          <path id="Path_1" data-name="Path 1" d="M46.349,60.106,42.6,66.289l4.008,6.568a.207.207,0,0,1,.02.151c-.013.047-.06.018-.141.031H43.635c-.2,0-.342-.008-.423-.142q-.4-.785-.806-1.561t-.856-1.584q-.453-.805-.9-1.632h-.02q-.4.806-.836,1.611t-.856,1.6q-.423.8-.866,1.581c-.053.121-.148.133-.281.133h-2.76c-.053,0-.084.022-.094-.033a.2.2,0,0,1,.03-.141l3.887-6.38-3.784-6.405q-.06-.08-.02-.13a.146.146,0,0,1,.121-.051h2.84a.419.419,0,0,1,.181.03.366.366,0,0,1,.121.111q.362.806.806,1.611t.9,1.6q.453.785.836,1.6h.02q.4-.826.815-1.611t.844-1.581q.433-.8.836-1.581a.31.31,0,0,1,.081-.13.292.292,0,0,1,.161-.03h2.642a.115.115,0,0,1,.1.2Z" transform="translate(-34.938 -58.817)" fill="#ff61f6"/>
          <path id="Path_2" data-name="Path 2" d="M135.607,65.708a6.239,6.239,0,0,1-2.689-.563,4.276,4.276,0,0,1-1.883-1.7,5.442,5.442,0,0,1-.685-2.85,5.259,5.259,0,0,1,.685-2.638,5.027,5.027,0,0,1,1.994-1.934,6.436,6.436,0,0,1,3.162-.725q.1,0,.262.01t.383.03V51.368q0-.141.121-.141h2.533a.107.107,0,0,1,.121.094.1.1,0,0,1,0,.03v11.9q0,.342.03.745t.051.725a.208.208,0,0,1-.121.2,9.986,9.986,0,0,1-2.034.6A10.921,10.921,0,0,1,135.607,65.708Zm1.228-2.5v-5.5a2.01,2.01,0,0,0-.332-.06,4.034,4.034,0,0,0-.413-.02,3.112,3.112,0,0,0-1.407.322,2.592,2.592,0,0,0-1.471,2.516,3.555,3.555,0,0,0,.211,1.289,2.448,2.448,0,0,0,.563.887,2.147,2.147,0,0,0,.844.5,3.31,3.31,0,0,0,1.038.161q.281,0,.524-.02a2.149,2.149,0,0,0,.444-.082Z" transform="translate(-118.411 -51.226)" fill="#ff61f6"/>
        </g>
      </g>
    </g>
  </g>
</svg>
