<svg id="xd_DSP_128" xmlns="http://www.w3.org/2000/svg" width="96" height="117.901" viewBox="0 0 96 117.901">
  <g id="Surface" transform="translate(-16 -4)">
    <g id="Document">
      <g id="Document_Fill">
        <path id="_128" d="M28,121.2a9.923,9.923,0,0,1-10-9.8V17A9.923,9.923,0,0,1,28,7.2H83a10.068,10.068,0,0,1,7.1,2.9l17,16.7a9.444,9.444,0,0,1,2.9,6.9v77.7a9.923,9.923,0,0,1-10,9.8Z" fill="#470137"/>
      </g>
      <g id="Document_Outline">
        <path id="_128-2" d="M83,8a8.657,8.657,0,0,1,5.7,2.4l17,16.7a7.251,7.251,0,0,1,2.3,5.4v77.7a7.853,7.853,0,0,1-8,7.8H28a7.772,7.772,0,0,1-8-7.7V15.9A7.938,7.938,0,0,1,28,8H83m.1-4h-55A12.016,12.016,0,0,0,16,15.8v94.4a11.78,11.78,0,0,0,12,11.7h72a11.786,11.786,0,0,0,12-11.4V32.6a11.881,11.881,0,0,0-3.5-8.4L91.5,7.5A11.881,11.881,0,0,0,83.1,4Z" fill="#ff61f6"/>
      </g>
    </g>
  </g>
  <g id="Mime" transform="translate(-16 -4)">
    <g id="_128-3">
      <g id="Group_524" data-name="Group 524">
        <path id="Path_1032" data-name="Path 1032" d="M45.7,88.2c0-.1,0-.2.2-.2.6,0,2.3-.1,4.1-.1,5.3,0,7.9,3.4,7.9,8.4,0,6.9-4.6,9-8.1,9-1.3,0-3.2,0-4-.1a.215.215,0,0,1-.2-.2V88.2Zm2.8,14.7c.4,0,.8.1,1.3.1,2.9,0,5.1-2.1,5.1-6.5,0-4.3-2.2-6-5-6a6.15,6.15,0,0,0-1.4.1v12.3Z" fill="#d4d4d4"/>
      </g>
      <g id="Group_525" data-name="Group 525">
        <path id="Path_1033" data-name="Path 1033" d="M60.5,104.8c-.1-.1-.2-.2-.2-.3V102c0-.1.1-.2.2-.1a6.819,6.819,0,0,0,3.8,1.2c1.9,0,2.7-1,2.7-2.1,0-1-.5-1.8-2.3-2.9l-.9-.5c-2.7-1.5-3.5-3-3.5-5,0-2.7,1.8-4.8,5.3-4.8a6.649,6.649,0,0,1,3.3.6c.1.1.2.1.2.3V91c0,.1-.1.2-.2.1a6.317,6.317,0,0,0-3.2-.8c-2,0-2.7,1.1-2.7,2.1s.5,1.7,2.3,2.7l.8.4c3,1.6,3.7,3.2,3.7,5.2,0,2.9-2.1,4.9-5.5,4.9A8.873,8.873,0,0,1,60.5,104.8Z" fill="#d4d4d4"/>
      </g>
      <g id="Group_526" data-name="Group 526">
        <path id="Path_1034" data-name="Path 1034" d="M72.9,88.2c0-.1,0-.2.2-.2,1-.1,2.5-.1,4.1-.1,4.4,0,6.3,2.4,6.3,5.5,0,4-2.9,5.7-6.4,5.7H75.9v6.1a.215.215,0,0,1-.2.2H73.3a.215.215,0,0,1-.2-.2v-17Zm2.8,8.4H77c1.8,0,3.6-.7,3.6-3.1,0-2-1.2-3-3.3-3a6.181,6.181,0,0,0-1.5.1v6Z" fill="#d4d4d4"/>
      </g>
    </g>
  </g>
  <g id="Modifier" transform="translate(-16 -4)">
    <g id="Xd">
      <g id="_128-4">
        <path id="Path_1035" data-name="Path 1035" d="M64.9,29.8,54.2,47.7,66.1,67.3a.6.6,0,0,1,.1.4c0,.1-.2.2-.4.3H57.3a1.371,1.371,0,0,1-1.3-.6c-.8-1.6-1.6-3.1-2.4-4.6s-1.7-3.1-2.5-4.7c-.9-1.6-1.8-3.2-2.7-4.9h-.1c-.8,1.6-1.6,3.2-2.5,4.8s-1.7,3.2-2.5,4.8-1.7,3.2-2.6,4.7a.749.749,0,0,1-.8.5H31.7c-.1,0-.3-.1-.3-.2h0a.6.6,0,0,1,.1-.4l11.6-19L31.3,29.7a.756.756,0,0,1-.1-.4.52.52,0,0,1,.4-.2h8.5a.749.749,0,0,1,.5.1c.1.1.3.2.4.3.7,1.6,2,2.7,2.9,4.3s1.8,3.2,2.7,4.7c.9,1.6,1.7,3.1,2.5,4.7h.1l2.4-4.8c.8-1.6,1.7-3.1,2.5-4.7.9-1.6,1.2-2.7,2-4.2a.758.758,0,0,1,.2-.4.749.749,0,0,1,.5-.1h7.9c.2,0,.4.1.4.3a.588.588,0,0,1-.2.5Z" fill="#ff61f6"/>
        <path id="Path_1036" data-name="Path 1036" d="M81.4,68.9a18.269,18.269,0,0,1-8-1.7,13.035,13.035,0,0,1-5.6-5.3,16.67,16.67,0,0,1-2-8.5,15.228,15.228,0,0,1,7.9-13.7c2.6-1.4,5.7-1.7,9.4-1.7h.8c.3,0,.7.1,1.1.1V25.5c0-.3.1-.4.4-.4h7.1c.2,0,.3.1.4.3v36a16.951,16.951,0,0,0,.1,2.2c.1.8.1,1.5.2,2.2a.548.548,0,0,1-.4.6,23.455,23.455,0,0,1-5.6,2A38.958,38.958,0,0,1,81.4,68.9ZM85,61.2V44.9H84c-.4,0-.8-.1-1.2-.1a8.759,8.759,0,0,0-4.2.8,8.426,8.426,0,0,0-3.4,2.8A7.892,7.892,0,0,0,74,53.1a12.088,12.088,0,0,0,.6,3.8,6.54,6.54,0,0,0,1.7,2.6A7.607,7.607,0,0,0,79.1,61a10.588,10.588,0,0,0,3.1.5,8.083,8.083,0,0,0,1.6-.1A2.744,2.744,0,0,0,85,61.2Z" fill="#ff61f6"/>
      </g>
    </g>
  </g>
</svg>
